<?xml version="1.0" encoding="UTF-8" standalone="no"?>
<svg 
  xmlns:dc="http://purl.org/dc/elements/1.1/" 
  xmlns:cc="http://creativecommons.org/ns#" 
  xmlns:rdf="http://www.w3.org/1999/02/22-rdf-syntax-ns#" 
  xmlns:svg="http://www.w3.org/2000/svg" 
  xmlns="http://www.w3.org/2000/svg" viewBox="0 0 689 928.97498" height="928.97498" width="689" xml:space="preserve" version="1.1" id="svg2">
  <metadata id="metadata8">
    <rdf:RDF>
      <cc:Work rdf:about="">
        <dc:format>image/svg+xml</dc:format>
        <dc:type rdf:resource="http://purl.org/dc/dcmitype/StillImage" />
      </cc:Work>
    </rdf:RDF>
  </metadata>
  <defs id="defs6">
    <clipPath id="clipPath18" clipPathUnits="userSpaceOnUse">
      <path id="path20" d="M 0,7431.78 0,0 l 5512,0 0,7431.78 -5512,0 z" />
    </clipPath>
    <clipPath id="clipPath30" clipPathUnits="userSpaceOnUse">
      <path id="path32" d="m 5512,84.0117 -1512,0 0,1511.9883 1512,0 0,-1511.9883 z" />
    </clipPath>
    <linearGradient id="linearGradient34" spreadMethod="pad" gradientTransform="matrix(-6.61e-5,1511.99,1511.99,6.61e-5,4756,84.01)" gradientUnits="userSpaceOnUse" y2="0" x2="1" y1="0" x1="0">
      <stop id="stop36" offset="0" style="stop-opacity:1;stop-color:#66c330" />
      <stop id="stop38" offset="1" style="stop-opacity:1;stop-color:#a0d742" />
    </linearGradient>
    <clipPath id="clipPath46" clipPathUnits="userSpaceOnUse">
      <path id="path48" d="M 0,7431.78 0,0 l 5512,0 0,7431.78 -5512,0 z" />
    </clipPath>
  </defs>
  <g transform="matrix(1.25,0,0,-1.25,0,928.975)" id="g10">
    <g transform="scale(0.1,0.1)" id="g12">
      <g id="g42">
        <g clip-path="url(#clipPath46)" id="g44">
          <path id="path50" style="fill:#ffffff;fill-opacity:1;fill-rule:nonzero;stroke:none" d="m 2414.65,1150.64 c -32.45,-11.84 -49.18,-47.72 -37.39,-80.12 L 2505.4,718.238 c 1.45,-3.929 -0.6,-8.297 -4.54,-9.73 -3.93,-1.426 -8.26,0.633 -9.69,4.57 l -109.29,300.302 c -11.82,32.47 -47.67,49.22 -80.13,37.41 -32.46,-11.81 -49.24,-47.69 -37.42,-80.142 L 2435,501.762 2212.48,557.09 c -31.23,2.519 -60.08,-18.692 -66.31,-50.16 -5.04,-25.371 6.09,-50.27 26.26,-63.942 6.74,-4.547 401.27,-187.078 411.42,-191.199 65.12,-26.41 139.84,-29.73 211.07,-3.801 152.77,55.602 231.51,224.524 175.93,377.301 -1.05,2.859 -160.63,441.261 -160.63,441.261 -11.82,32.47 -47.71,49.19 -80.15,37.37 -32.44,-11.81 -49.18,-47.69 -37.38,-80.14 l 84.84,-233.132 c 1.46,-3.949 -0.59,-8.308 -4.53,-9.738 -3.95,-1.441 -8.28,0.61 -9.72,4.531 l -119.15,327.409 c -11.83,32.49 -47.68,49.22 -80.14,37.41 -32.46,-11.82 -49.2,-47.69 -37.39,-80.14 L 2628,791.578 c 1.42,-3.937 -0.6,-8.328 -4.57,-9.738 -3.92,-1.461 -8.26,0.601 -9.71,4.539 l -118.97,326.861 c -11.81,32.46 -47.67,49.22 -80.1,37.4 z m 943.87,-643.71 c -6.23,31.468 -35.09,52.679 -66.31,50.16 l -222.51,-55.328 170.66,468.886 c 11.81,32.452 -4.96,68.332 -37.43,80.142 -32.46,11.81 -68.31,-4.94 -80.12,-37.41 L 3013.52,713.078 c -1.44,-3.937 -5.76,-5.996 -9.7,-4.57 -3.93,1.433 -5.98,5.801 -4.53,9.73 l 128.14,352.282 c 11.78,32.4 -4.94,68.28 -37.4,80.12 -32.43,11.82 -68.29,-4.94 -80.09,-37.4 l -95.05,-261.15 c 39.47,-108.418 78.65,-216.059 79.43,-218.172 58.42,-160.586 -20.37,-338.129 -176.09,-403.617 35.5,0.949 70.24,8.359 102.6,21.488 10.16,4.121 404.69,186.652 411.43,191.199 20.17,13.672 31.3,38.571 26.26,63.942 z m -451.72,367.379 71.29,195.811 c 11.81,32.45 -4.93,68.32 -37.39,80.14 -32.46,11.81 -68.31,-4.92 -80.14,-37.41 l -20.29,-55.76 c 11.95,-32.83 38.65,-106.18 66.53,-182.781 z m 31.45,395.591 78.18,139.17 c 7.53,13.39 2.77,30.37 -10.63,37.9 -13.41,7.54 -30.38,2.76 -37.9,-10.64 l -78.19,-139.17 c -7.53,-13.4 -2.77,-30.37 10.64,-37.9 4.3,-2.42 8.99,-3.57 13.6,-3.57 9.74,0 19.19,5.11 24.3,14.21 z m -159.89,48.84 0,164.24 c 0,15.37 -12.46,27.84 -27.84,27.84 -15.37,0 -27.83,-12.47 -27.83,-27.84 l 0,-164.24 c 0,-15.37 12.46,-27.84 27.83,-27.84 15.38,0 27.84,12.47 27.84,27.84 z m -188.19,-61.79 c -9.73,0 -19.18,5.1 -24.29,14.19 l -77.6,137.91 c -7.55,13.39 -2.8,30.37 10.6,37.91 13.4,7.54 30.38,2.8 37.91,-10.61 l 77.61,-137.91 c 7.54,-13.4 2.79,-30.37 -10.61,-37.91 -4.31,-2.43 -9,-3.58 -13.62,-3.58" />
          <path id="path52" style="fill:#ffffff;fill-opacity:1;fill-rule:nonzero;stroke:none" d="m 4414.65,1150.64 c -32.45,-11.84 -49.18,-47.72 -37.39,-80.12 L 4505.4,718.238 c 1.45,-3.929 -0.6,-8.297 -4.54,-9.73 -3.93,-1.426 -8.26,0.633 -9.69,4.57 l -109.29,300.302 c -11.82,32.47 -47.67,49.22 -80.13,37.41 -32.46,-11.81 -49.24,-47.69 -37.42,-80.142 L 4435,501.762 4212.48,557.09 c -31.23,2.519 -60.08,-18.692 -66.31,-50.16 -5.04,-25.371 6.09,-50.27 26.26,-63.942 6.74,-4.547 401.27,-187.078 411.42,-191.199 65.12,-26.41 139.84,-29.73 211.07,-3.801 152.77,55.602 231.51,224.524 175.93,377.301 -1.05,2.859 -160.63,441.261 -160.63,441.261 -11.82,32.47 -47.71,49.19 -80.15,37.37 -32.44,-11.81 -49.18,-47.69 -37.38,-80.14 l 84.84,-233.132 c 1.46,-3.949 -0.59,-8.308 -4.53,-9.738 -3.95,-1.441 -8.28,0.61 -9.72,4.531 l -119.15,327.409 c -11.83,32.49 -47.68,49.22 -80.14,37.41 -32.46,-11.82 -49.2,-47.69 -37.39,-80.14 L 4628,791.578 c 1.42,-3.937 -0.6,-8.328 -4.57,-9.738 -3.92,-1.461 -8.26,0.601 -9.71,4.539 l -118.97,326.861 c -11.81,32.46 -47.67,49.22 -80.1,37.4 z m 943.87,-643.71 c -6.23,31.468 -35.09,52.679 -66.31,50.16 l -222.51,-55.328 170.66,468.886 c 11.81,32.452 -4.96,68.332 -37.43,80.142 -32.46,11.81 -68.31,-4.94 -80.12,-37.41 L 5013.52,713.078 c -1.44,-3.937 -5.76,-5.996 -9.7,-4.57 -3.93,1.433 -5.98,5.801 -4.53,9.73 l 128.14,352.282 c 11.78,32.4 -4.94,68.28 -37.4,80.12 -32.43,11.82 -68.29,-4.94 -80.09,-37.4 l -95.05,-261.15 c 39.47,-108.418 78.65,-216.059 79.43,-218.172 58.42,-160.586 -20.37,-338.129 -176.09,-403.617 35.5,0.949 70.24,8.359 102.6,21.488 10.16,4.121 404.69,186.652 411.43,191.199 20.17,13.672 31.3,38.571 26.26,63.942 z m -451.72,367.379 71.29,195.811 c 11.81,32.45 -4.93,68.32 -37.39,80.14 -32.46,11.81 -68.31,-4.92 -80.14,-37.41 l -20.29,-55.76 c 11.95,-32.83 38.65,-106.18 66.53,-182.781 z m 31.45,395.591 78.18,139.17 c 7.53,13.39 2.77,30.37 -10.63,37.9 -13.41,7.54 -30.38,2.76 -37.9,-10.64 l -78.19,-139.17 c -7.53,-13.4 -2.77,-30.37 10.64,-37.9 4.3,-2.42 8.99,-3.57 13.6,-3.57 9.74,0 19.19,5.11 24.3,14.21 z m -159.89,48.84 0,164.24 c 0,15.37 -12.46,27.84 -27.84,27.84 -15.38,0 -27.84,-12.47 -27.84,-27.84 l 0,-164.24 c 0,-15.37 12.46,-27.84 27.84,-27.84 15.38,0 27.84,12.47 27.84,27.84 z m -188.2,-61.79 c -9.73,0 -19.17,5.1 -24.28,14.19 l -77.6,137.91 c -7.55,13.39 -2.8,30.37 10.6,37.91 13.39,7.54 30.38,2.8 37.91,-10.61 l 77.61,-137.91 c 7.54,-13.4 2.79,-30.37 -10.61,-37.91 -4.31,-2.43 -9,-3.58 -13.63,-3.58" />
          <path id="path54" style="fill:#ffffff;fill-opacity:1;fill-rule:nonzero;stroke:none" d="m 414.652,1150.64 c -32.449,-11.84 -49.179,-47.72 -37.39,-80.12 L 505.395,718.238 c 1.457,-3.929 -0.594,-8.297 -4.532,-9.73 -3.933,-1.426 -8.261,0.633 -9.695,4.57 L 381.879,1013.38 c -11.816,32.47 -47.664,49.22 -80.125,37.41 -32.461,-11.81 -49.238,-47.69 -37.422,-80.142 L 434.996,501.762 212.477,557.09 c -31.223,2.519 -60.079,-18.692 -66.309,-50.16 -5.039,-25.371 6.094,-50.27 26.258,-63.942 6.738,-4.547 401.269,-187.078 411.426,-191.199 65.117,-26.41 139.836,-29.73 211.066,-3.801 152.773,55.602 231.512,224.524 175.937,377.301 -1.054,2.859 -160.636,441.261 -160.636,441.261 -11.817,32.47 -47.703,49.19 -80.145,37.37 -32.441,-11.81 -49.179,-47.69 -37.383,-80.14 l 84.844,-233.132 c 1.453,-3.949 -0.597,-8.308 -4.531,-9.738 -3.957,-1.441 -8.281,0.61 -9.727,4.531 L 644.125,1112.85 c -11.824,32.49 -47.676,49.22 -80.137,37.41 -32.461,-11.82 -49.199,-47.69 -37.39,-80.14 L 628.004,791.578 c 1.414,-3.937 -0.606,-8.328 -4.57,-9.738 -3.926,-1.461 -8.262,0.601 -9.719,4.539 L 494.75,1113.24 c -11.805,32.46 -47.664,49.22 -80.098,37.4 z M 1358.52,506.93 c -6.23,31.468 -35.09,52.679 -66.31,50.16 l -222.51,-55.328 170.66,468.886 c 11.81,32.452 -4.96,68.332 -37.43,80.142 -32.46,11.81 -68.31,-4.94 -80.12,-37.41 L 1013.52,713.078 c -1.44,-3.937 -5.76,-5.996 -9.7,-4.57 -3.933,1.433 -5.984,5.801 -4.527,9.73 l 128.137,352.282 c 11.78,32.4 -4.94,68.28 -37.4,80.12 -32.43,11.82 -68.29,-4.94 -80.09,-37.4 L 914.887,852.09 C 954.359,743.672 993.539,636.031 994.32,633.918 1052.74,473.332 973.949,295.789 818.227,230.301 c 35.5,0.949 70.246,8.359 102.609,21.488 10.156,4.121 404.684,186.652 411.424,191.199 20.17,13.672 31.3,38.571 26.26,63.942 z M 906.801,874.309 978.09,1070.12 c 11.808,32.45 -4.93,68.32 -37.391,80.14 -32.461,11.81 -68.312,-4.92 -80.136,-37.41 l -20.293,-55.76 c 11.953,-32.83 38.652,-106.18 66.531,-182.781 z m 31.445,395.591 78.184,139.17 c 7.53,13.39 2.77,30.37 -10.63,37.9 -13.413,7.54 -30.386,2.76 -37.905,-10.64 l -78.184,-139.17 c -7.527,-13.4 -2.773,-30.37 10.637,-37.9 4.304,-2.42 8.992,-3.57 13.601,-3.57 9.739,0 19.192,5.11 24.297,14.21 z m -159.883,48.84 0,164.24 c 0,15.37 -12.465,27.84 -27.84,27.84 -15.378,0 -27.835,-12.47 -27.835,-27.84 l 0,-164.24 c 0,-15.37 12.457,-27.84 27.835,-27.84 15.375,0 27.84,12.47 27.84,27.84 z m -188.195,-61.79 c -9.73,0 -19.176,5.1 -24.285,14.19 l -77.606,137.91 c -7.547,13.39 -2.793,30.37 10.606,37.91 13.39,7.54 30.375,2.8 37.91,-10.61 l 77.605,-137.91 c 7.543,-13.4 2.793,-30.37 -10.605,-37.91 -4.316,-2.43 -9.004,-3.58 -13.625,-3.58" />
          <path id="path56" style="fill:#100f0d;fill-opacity:1;fill-rule:nonzero;stroke:none" d="M 1401.57,5991.04 C 1271.76,5943.69 1204.85,5800.18 1252,5670.57 l 512.54,-1409.14 c 5.82,-15.7 -2.39,-33.17 -18.13,-38.91 -15.74,-5.7 -33.05,2.54 -38.79,18.28 L 1270.47,5442.01 C 1223.21,5571.9 1079.81,5638.89 949.965,5591.66 820.121,5544.4 753.012,5400.88 800.277,5271.08 L 1482.93,3395.53 592.855,3616.86 c -124.882,10.08 -240.312,-74.77 -265.234,-200.67 -20.156,-101.48 24.375,-201.05 105.039,-255.74 26.953,-18.2 1605.08,-748.32 1645.7,-764.8 260.47,-105.63 559.34,-118.91 844.26,-15.2 611.1,222.38 926.06,898.09 703.75,1509.18 -4.22,11.45 -642.54,1765.04 -642.54,1765.04 -47.26,129.88 -190.82,196.76 -320.58,149.49 -129.77,-47.22 -196.72,-190.74 -149.53,-320.54 l 339.37,-932.54 c 5.82,-15.78 -2.38,-33.25 -18.12,-38.95 -15.82,-5.78 -33.13,2.42 -38.91,18.13 l -476.6,1309.64 c -47.31,129.97 -190.71,196.88 -320.55,149.61 -129.84,-47.26 -196.8,-190.74 -149.57,-320.54 l 405.63,-1114.14 c 5.66,-15.78 -2.43,-33.32 -18.29,-38.99 -15.7,-5.82 -33.04,2.42 -38.86,18.17 l -475.86,1307.46 c -47.23,129.8 -190.67,196.87 -320.39,149.57 z M 5177.04,3416.19 c -24.93,125.9 -140.36,210.75 -265.24,200.67 l -890.04,-221.33 682.62,1875.55 c 47.27,129.8 -19.84,273.32 -149.69,320.58 -129.84,47.23 -273.24,-19.76 -320.51,-149.65 L 3797.04,4240.8 c -5.75,-15.74 -23.05,-23.98 -38.79,-18.28 -15.75,5.74 -23.95,23.21 -18.13,38.91 l 512.54,1409.14 c 47.15,129.61 -19.76,273.12 -149.57,320.47 -129.73,47.3 -273.16,-19.77 -320.39,-149.57 L 3402.5,4796.86 c 157.9,-433.67 314.61,-864.26 317.74,-872.7 233.67,-642.34 -81.49,-1352.5 -704.38,-1614.49 142,3.83 280.98,33.48 410.43,85.98 40.63,16.48 1618.75,746.6 1645.71,764.8 80.66,54.69 125.19,154.26 105.04,255.74 z m -1806.88,1469.54 285.16,783.24 c 47.22,129.8 -19.73,273.28 -149.57,320.54 -129.85,47.27 -273.25,-19.64 -320.55,-149.61 l -81.17,-223.04 c 47.81,-131.33 154.61,-424.73 266.13,-731.13 z m 125.78,1582.34 312.74,556.68 c 30.11,53.59 11.09,121.48 -42.54,151.6 -53.64,30.2 -121.53,11.06 -151.6,-42.54 L 3301.8,6577.13 c -30.12,-53.59 -11.09,-121.48 42.54,-151.6 17.23,-9.69 35.98,-14.3 54.41,-14.3 38.95,0 76.76,20.47 97.19,56.84 z m -639.53,195.39 0,656.95 c 0,61.49 -49.86,111.37 -111.37,111.37 -61.5,0 -111.34,-49.88 -111.34,-111.37 l 0,-656.95 c 0,-61.48 49.84,-111.37 111.34,-111.37 61.51,0 111.37,49.89 111.37,111.37 z m -752.79,-247.19 c -38.91,0 -76.7,20.43 -97.13,56.76 l -310.43,551.64 c -30.18,53.6 -11.17,121.49 42.42,151.64 53.58,30.2 121.51,11.21 151.64,-42.42 l 310.43,-551.64 c 30.18,-53.59 11.17,-121.48 -42.42,-151.64 -17.27,-9.73 -36.02,-14.34 -54.51,-14.34" />
        </g>
      </g>
    </g>
  </g>
</svg>